solid 
 facet normal  0.000000e+00 -1.000000e+00  0.000000e+00
   outer loop
     vertex  1.137500e+02 -8.875000e+01  2.150000e+02
     vertex -1.137500e+02 -8.875000e+01  2.350000e+02
     vertex -1.137500e+02 -8.875000e+01  2.150000e+02
   endloop
 endfacet
 facet normal  0.000000e+00 -1.000000e+00  0.000000e+00
   outer loop
     vertex  1.137500e+02 -8.875000e+01  2.150000e+02
     vertex  1.137500e+02 -8.875000e+01  2.350000e+02
     vertex -1.137500e+02 -8.875000e+01  2.350000e+02
   endloop
 endfacet
 facet normal -1.000000e+00 -1.601223e-16  0.000000e+00
   outer loop
     vertex -1.137500e+02 -8.875000e+01  2.150000e+02
     vertex -1.137500e+02  8.875000e+01  2.350000e+02
     vertex -1.137500e+02  8.875000e+01  2.150000e+02
   endloop
 endfacet
 facet normal -1.000000e+00 -1.601223e-16  0.000000e+00
   outer loop
     vertex -1.137500e+02 -8.875000e+01  2.150000e+02
     vertex -1.137500e+02 -8.875000e+01  2.350000e+02
     vertex -1.137500e+02  8.875000e+01  2.350000e+02
   endloop
 endfacet
 facet normal  1.000000e+00  1.601223e-16  0.000000e+00
   outer loop
     vertex  1.137500e+02  8.875000e+01  2.150000e+02
     vertex  1.137500e+02 -8.875000e+01  2.350000e+02
     vertex  1.137500e+02 -8.875000e+01  2.150000e+02
   endloop
 endfacet
 facet normal  1.000000e+00  1.601223e-16 -0.000000e+00
   outer loop
     vertex  1.137500e+02  8.875000e+01  2.150000e+02
     vertex  1.137500e+02  8.875000e+01  2.350000e+02
     vertex  1.137500e+02 -8.875000e+01  2.350000e+02
   endloop
 endfacet
 facet normal  0.000000e+00  0.000000e+00 -1.000000e+00
   outer loop
     vertex -1.137500e+02  8.875000e+01  2.150000e+02
     vertex -1.077500e+02  8.275000e+01  2.150000e+02
     vertex -1.077500e+02 -8.275000e+01  2.150000e+02
   endloop
 endfacet
 facet normal  0.000000e+00  0.000000e+00 -1.000000e+00
   outer loop
     vertex -1.137500e+02  8.875000e+01  2.150000e+02
     vertex -1.077500e+02 -8.275000e+01  2.150000e+02
     vertex -1.137500e+02 -8.875000e+01  2.150000e+02
   endloop
 endfacet
 facet normal -0.000000e+00  0.000000e+00 -1.000000e+00
   outer loop
     vertex  1.077500e+02 -8.275000e+01  2.150000e+02
     vertex -1.137500e+02 -8.875000e+01  2.150000e+02
     vertex -1.077500e+02 -8.275000e+01  2.150000e+02
   endloop
 endfacet
 facet normal  0.000000e+00  0.000000e+00 -1.000000e+00
   outer loop
     vertex  1.137500e+02 -8.875000e+01  2.150000e+02
     vertex -1.137500e+02 -8.875000e+01  2.150000e+02
     vertex  1.077500e+02 -8.275000e+01  2.150000e+02
   endloop
 endfacet
 facet normal  0.000000e+00  0.000000e+00 -1.000000e+00
   outer loop
     vertex  1.137500e+02  8.875000e+01  2.150000e+02
     vertex  1.077500e+02 -8.275000e+01  2.150000e+02
     vertex  1.077500e+02  8.275000e+01  2.150000e+02
   endloop
 endfacet
 facet normal  0.000000e+00 -0.000000e+00 -1.000000e+00
   outer loop
     vertex  1.137500e+02  8.875000e+01  2.150000e+02
     vertex  1.137500e+02 -8.875000e+01  2.150000e+02
     vertex  1.077500e+02 -8.275000e+01  2.150000e+02
   endloop
 endfacet
 facet normal -0.000000e+00  0.000000e+00 -1.000000e+00
   outer loop
     vertex  1.137500e+02  8.875000e+01  2.150000e+02
     vertex -1.077500e+02  8.275000e+01  2.150000e+02
     vertex -1.137500e+02  8.875000e+01  2.150000e+02
   endloop
 endfacet
 facet normal  0.000000e+00  0.000000e+00 -1.000000e+00
   outer loop
     vertex  1.137500e+02  8.875000e+01  2.150000e+02
     vertex  1.077500e+02  8.275000e+01  2.150000e+02
     vertex -1.077500e+02  8.275000e+01  2.150000e+02
   endloop
 endfacet
 facet normal  0.000000e+00  0.000000e+00  1.000000e+00
   outer loop
     vertex -1.137500e+02  8.875000e+01  2.350000e+02
     vertex -1.077500e+02 -8.275000e+01  2.350000e+02
     vertex -1.077500e+02  8.275000e+01  2.350000e+02
   endloop
 endfacet
 facet normal  0.000000e+00  0.000000e+00  1.000000e+00
   outer loop
     vertex -1.137500e+02  8.875000e+01  2.350000e+02
     vertex -1.137500e+02 -8.875000e+01  2.350000e+02
     vertex -1.077500e+02 -8.275000e+01  2.350000e+02
   endloop
 endfacet
 facet normal  0.000000e+00  0.000000e+00  1.000000e+00
   outer loop
     vertex  1.077500e+02 -8.275000e+01  2.350000e+02
     vertex -1.077500e+02 -8.275000e+01  2.350000e+02
     vertex -1.137500e+02 -8.875000e+01  2.350000e+02
   endloop
 endfacet
 facet normal  0.000000e+00  0.000000e+00  1.000000e+00
   outer loop
     vertex  1.137500e+02 -8.875000e+01  2.350000e+02
     vertex  1.077500e+02 -8.275000e+01  2.350000e+02
     vertex -1.137500e+02 -8.875000e+01  2.350000e+02
   endloop
 endfacet
 facet normal  0.000000e+00  0.000000e+00  1.000000e+00
   outer loop
     vertex  1.137500e+02  8.875000e+01  2.350000e+02
     vertex  1.077500e+02  8.275000e+01  2.350000e+02
     vertex  1.077500e+02 -8.275000e+01  2.350000e+02
   endloop
 endfacet
 facet normal  0.000000e+00  0.000000e+00  1.000000e+00
   outer loop
     vertex  1.137500e+02  8.875000e+01  2.350000e+02
     vertex  1.077500e+02 -8.275000e+01  2.350000e+02
     vertex  1.137500e+02 -8.875000e+01  2.350000e+02
   endloop
 endfacet
 facet normal  0.000000e+00  0.000000e+00  1.000000e+00
   outer loop
     vertex  1.137500e+02  8.875000e+01  2.350000e+02
     vertex -1.137500e+02  8.875000e+01  2.350000e+02
     vertex -1.077500e+02  8.275000e+01  2.350000e+02
   endloop
 endfacet
 facet normal  0.000000e+00  0.000000e+00  1.000000e+00
   outer loop
     vertex  1.137500e+02  8.875000e+01  2.350000e+02
     vertex -1.077500e+02  8.275000e+01  2.350000e+02
     vertex  1.077500e+02  8.275000e+01  2.350000e+02
   endloop
 endfacet
 facet normal  0.000000e+00  1.000000e+00  0.000000e+00
   outer loop
     vertex -1.137500e+02  8.875000e+01  2.150000e+02
     vertex  1.137500e+02  8.875000e+01  2.350000e+02
     vertex  1.137500e+02  8.875000e+01  2.150000e+02
   endloop
 endfacet
 facet normal  0.000000e+00  1.000000e+00  0.000000e+00
   outer loop
     vertex -1.137500e+02  8.875000e+01  2.150000e+02
     vertex -1.137500e+02  8.875000e+01  2.350000e+02
     vertex  1.137500e+02  8.875000e+01  2.350000e+02
   endloop
 endfacet
 facet normal  0.000000e+00  1.000000e+00  0.000000e+00
   outer loop
     vertex  1.077500e+02 -8.275000e+01  2.150000e+02
     vertex -1.077500e+02 -8.275000e+01  2.150000e+02
     vertex -1.077500e+02 -8.275000e+01  2.350000e+02
   endloop
 endfacet
 facet normal  0.000000e+00  1.000000e+00 -0.000000e+00
   outer loop
     vertex  1.077500e+02 -8.275000e+01  2.150000e+02
     vertex -1.077500e+02 -8.275000e+01  2.350000e+02
     vertex  1.077500e+02 -8.275000e+01  2.350000e+02
   endloop
 endfacet
 facet normal -1.000000e+00  0.000000e+00  0.000000e+00
   outer loop
     vertex  1.077500e+02  8.275000e+01  2.150000e+02
     vertex  1.077500e+02 -8.275000e+01  2.150000e+02
     vertex  1.077500e+02 -8.275000e+01  2.350000e+02
   endloop
 endfacet
 facet normal -1.000000e+00  0.000000e+00  0.000000e+00
   outer loop
     vertex  1.077500e+02  8.275000e+01  2.150000e+02
     vertex  1.077500e+02 -8.275000e+01  2.350000e+02
     vertex  1.077500e+02  8.275000e+01  2.350000e+02
   endloop
 endfacet
 facet normal  0.000000e+00 -1.000000e+00  0.000000e+00
   outer loop
     vertex -1.077500e+02  8.275000e+01  2.150000e+02
     vertex  1.077500e+02  8.275000e+01  2.150000e+02
     vertex  1.077500e+02  8.275000e+01  2.350000e+02
   endloop
 endfacet
 facet normal  0.000000e+00 -1.000000e+00  0.000000e+00
   outer loop
     vertex -1.077500e+02  8.275000e+01  2.150000e+02
     vertex  1.077500e+02  8.275000e+01  2.350000e+02
     vertex -1.077500e+02  8.275000e+01  2.350000e+02
   endloop
 endfacet
 facet normal  1.000000e+00  0.000000e+00  0.000000e+00
   outer loop
     vertex -1.077500e+02 -8.275000e+01  2.150000e+02
     vertex -1.077500e+02  8.275000e+01  2.150000e+02
     vertex -1.077500e+02  8.275000e+01  2.350000e+02
   endloop
 endfacet
 facet normal  1.000000e+00  0.000000e+00  0.000000e+00
   outer loop
     vertex -1.077500e+02 -8.275000e+01  2.150000e+02
     vertex -1.077500e+02  8.275000e+01  2.350000e+02
     vertex -1.077500e+02 -8.275000e+01  2.350000e+02
   endloop
 endfacet
 facet normal -1.000000e+00  0.000000e+00  0.000000e+00
   outer loop
     vertex  1.017500e+02 -5.000000e+00  2.300000e+02
     vertex  1.017500e+02  5.000000e+00  2.200000e+02
     vertex  1.017500e+02 -5.000000e+00  2.200000e+02
   endloop
 endfacet
 facet normal -1.000000e+00  0.000000e+00  0.000000e+00
   outer loop
     vertex  1.017500e+02 -5.000000e+00  2.300000e+02
     vertex  1.017500e+02  5.000000e+00  2.300000e+02
     vertex  1.017500e+02  5.000000e+00  2.200000e+02
   endloop
 endfacet
 facet normal  1.000000e+00  0.000000e+00  0.000000e+00
   outer loop
     vertex  1.032500e+02 -5.000000e+00  2.300000e+02
     vertex  1.032500e+02 -5.000000e+00  2.200000e+02
     vertex  1.032500e+02  5.000000e+00  2.200000e+02
   endloop
 endfacet
 facet normal  1.000000e+00 -0.000000e+00  0.000000e+00
   outer loop
     vertex  1.032500e+02 -5.000000e+00  2.300000e+02
     vertex  1.032500e+02  5.000000e+00  2.200000e+02
     vertex  1.032500e+02  5.000000e+00  2.300000e+02
   endloop
 endfacet
 facet normal  0.000000e+00 -1.000000e+00 -0.000000e+00
   outer loop
     vertex  1.032500e+02 -5.000000e+00  2.300000e+02
     vertex  1.017500e+02 -5.000000e+00  2.200000e+02
     vertex  1.032500e+02 -5.000000e+00  2.200000e+02
   endloop
 endfacet
 facet normal -0.000000e+00 -1.000000e+00  0.000000e+00
   outer loop
     vertex  1.032500e+02 -5.000000e+00  2.300000e+02
     vertex  1.017500e+02 -5.000000e+00  2.300000e+02
     vertex  1.017500e+02 -5.000000e+00  2.200000e+02
   endloop
 endfacet
 facet normal  0.000000e+00  1.000000e+00  0.000000e+00
   outer loop
     vertex  1.032500e+02  5.000000e+00  2.300000e+02
     vertex  1.032500e+02  5.000000e+00  2.200000e+02
     vertex  1.017500e+02  5.000000e+00  2.200000e+02
   endloop
 endfacet
 facet normal  0.000000e+00  1.000000e+00  0.000000e+00
   outer loop
     vertex  1.032500e+02  5.000000e+00  2.300000e+02
     vertex  1.017500e+02  5.000000e+00  2.200000e+02
     vertex  1.017500e+02  5.000000e+00  2.300000e+02
   endloop
 endfacet
 facet normal -0.000000e+00  0.000000e+00 -1.000000e+00
   outer loop
     vertex  1.032500e+02  5.000000e+00  2.200000e+02
     vertex  1.017500e+02 -5.000000e+00  2.200000e+02
     vertex  1.017500e+02  5.000000e+00  2.200000e+02
   endloop
 endfacet
 facet normal  0.000000e+00 -0.000000e+00 -1.000000e+00
   outer loop
     vertex  1.032500e+02  5.000000e+00  2.200000e+02
     vertex  1.032500e+02 -5.000000e+00  2.200000e+02
     vertex  1.017500e+02 -5.000000e+00  2.200000e+02
   endloop
 endfacet
 facet normal  0.000000e+00  0.000000e+00  1.000000e+00
   outer loop
     vertex  1.032500e+02  5.000000e+00  2.300000e+02
     vertex  1.017500e+02  5.000000e+00  2.300000e+02
     vertex  1.017500e+02 -5.000000e+00  2.300000e+02
   endloop
 endfacet
 facet normal  0.000000e+00  0.000000e+00  1.000000e+00
   outer loop
     vertex  1.032500e+02  5.000000e+00  2.300000e+02
     vertex  1.017500e+02 -5.000000e+00  2.300000e+02
     vertex  1.032500e+02 -5.000000e+00  2.300000e+02
   endloop
 endfacet
 facet normal -1.000000e+00  0.000000e+00  0.000000e+00
   outer loop
     vertex -1.032500e+02 -5.000000e+00  2.300000e+02
     vertex -1.032500e+02  5.000000e+00  2.200000e+02
     vertex -1.032500e+02 -5.000000e+00  2.200000e+02
   endloop
 endfacet
 facet normal -1.000000e+00  0.000000e+00  0.000000e+00
   outer loop
     vertex -1.032500e+02 -5.000000e+00  2.300000e+02
     vertex -1.032500e+02  5.000000e+00  2.300000e+02
     vertex -1.032500e+02  5.000000e+00  2.200000e+02
   endloop
 endfacet
 facet normal  1.000000e+00  0.000000e+00  0.000000e+00
   outer loop
     vertex -1.017500e+02 -5.000000e+00  2.300000e+02
     vertex -1.017500e+02 -5.000000e+00  2.200000e+02
     vertex -1.017500e+02  5.000000e+00  2.200000e+02
   endloop
 endfacet
 facet normal  1.000000e+00 -0.000000e+00  0.000000e+00
   outer loop
     vertex -1.017500e+02 -5.000000e+00  2.300000e+02
     vertex -1.017500e+02  5.000000e+00  2.200000e+02
     vertex -1.017500e+02  5.000000e+00  2.300000e+02
   endloop
 endfacet
 facet normal  0.000000e+00 -1.000000e+00 -0.000000e+00
   outer loop
     vertex -1.017500e+02 -5.000000e+00  2.300000e+02
     vertex -1.032500e+02 -5.000000e+00  2.200000e+02
     vertex -1.017500e+02 -5.000000e+00  2.200000e+02
   endloop
 endfacet
 facet normal -0.000000e+00 -1.000000e+00  0.000000e+00
   outer loop
     vertex -1.017500e+02 -5.000000e+00  2.300000e+02
     vertex -1.032500e+02 -5.000000e+00  2.300000e+02
     vertex -1.032500e+02 -5.000000e+00  2.200000e+02
   endloop
 endfacet
 facet normal  0.000000e+00  1.000000e+00  0.000000e+00
   outer loop
     vertex -1.017500e+02  5.000000e+00  2.300000e+02
     vertex -1.017500e+02  5.000000e+00  2.200000e+02
     vertex -1.032500e+02  5.000000e+00  2.200000e+02
   endloop
 endfacet
 facet normal  0.000000e+00  1.000000e+00  0.000000e+00
   outer loop
     vertex -1.017500e+02  5.000000e+00  2.300000e+02
     vertex -1.032500e+02  5.000000e+00  2.200000e+02
     vertex -1.032500e+02  5.000000e+00  2.300000e+02
   endloop
 endfacet
 facet normal -0.000000e+00  0.000000e+00 -1.000000e+00
   outer loop
     vertex -1.017500e+02  5.000000e+00  2.200000e+02
     vertex -1.032500e+02 -5.000000e+00  2.200000e+02
     vertex -1.032500e+02  5.000000e+00  2.200000e+02
   endloop
 endfacet
 facet normal  0.000000e+00 -0.000000e+00 -1.000000e+00
   outer loop
     vertex -1.017500e+02  5.000000e+00  2.200000e+02
     vertex -1.017500e+02 -5.000000e+00  2.200000e+02
     vertex -1.032500e+02 -5.000000e+00  2.200000e+02
   endloop
 endfacet
 facet normal  0.000000e+00  0.000000e+00  1.000000e+00
   outer loop
     vertex -1.017500e+02  5.000000e+00  2.300000e+02
     vertex -1.032500e+02  5.000000e+00  2.300000e+02
     vertex -1.032500e+02 -5.000000e+00  2.300000e+02
   endloop
 endfacet
 facet normal  0.000000e+00  0.000000e+00  1.000000e+00
   outer loop
     vertex -1.017500e+02  5.000000e+00  2.300000e+02
     vertex -1.032500e+02 -5.000000e+00  2.300000e+02
     vertex -1.017500e+02 -5.000000e+00  2.300000e+02
   endloop
 endfacet
 facet normal -1.000000e+00  0.000000e+00  0.000000e+00
   outer loop
     vertex -5.000000e+00  7.675000e+01  2.300000e+02
     vertex -5.000000e+00  7.825000e+01  2.200000e+02
     vertex -5.000000e+00  7.675000e+01  2.200000e+02
   endloop
 endfacet
 facet normal -1.000000e+00  0.000000e+00  0.000000e+00
   outer loop
     vertex -5.000000e+00  7.675000e+01  2.300000e+02
     vertex -5.000000e+00  7.825000e+01  2.300000e+02
     vertex -5.000000e+00  7.825000e+01  2.200000e+02
   endloop
 endfacet
 facet normal  1.000000e+00  0.000000e+00  0.000000e+00
   outer loop
     vertex  5.000000e+00  7.675000e+01  2.300000e+02
     vertex  5.000000e+00  7.675000e+01  2.200000e+02
     vertex  5.000000e+00  7.825000e+01  2.200000e+02
   endloop
 endfacet
 facet normal  1.000000e+00 -0.000000e+00  0.000000e+00
   outer loop
     vertex  5.000000e+00  7.675000e+01  2.300000e+02
     vertex  5.000000e+00  7.825000e+01  2.200000e+02
     vertex  5.000000e+00  7.825000e+01  2.300000e+02
   endloop
 endfacet
 facet normal  0.000000e+00 -1.000000e+00 -0.000000e+00
   outer loop
     vertex  5.000000e+00  7.675000e+01  2.300000e+02
     vertex -5.000000e+00  7.675000e+01  2.200000e+02
     vertex  5.000000e+00  7.675000e+01  2.200000e+02
   endloop
 endfacet
 facet normal -0.000000e+00 -1.000000e+00  0.000000e+00
   outer loop
     vertex  5.000000e+00  7.675000e+01  2.300000e+02
     vertex -5.000000e+00  7.675000e+01  2.300000e+02
     vertex -5.000000e+00  7.675000e+01  2.200000e+02
   endloop
 endfacet
 facet normal  0.000000e+00  1.000000e+00  0.000000e+00
   outer loop
     vertex  5.000000e+00  7.825000e+01  2.300000e+02
     vertex  5.000000e+00  7.825000e+01  2.200000e+02
     vertex -5.000000e+00  7.825000e+01  2.200000e+02
   endloop
 endfacet
 facet normal  0.000000e+00  1.000000e+00  0.000000e+00
   outer loop
     vertex  5.000000e+00  7.825000e+01  2.300000e+02
     vertex -5.000000e+00  7.825000e+01  2.200000e+02
     vertex -5.000000e+00  7.825000e+01  2.300000e+02
   endloop
 endfacet
 facet normal -0.000000e+00  0.000000e+00 -1.000000e+00
   outer loop
     vertex  5.000000e+00  7.825000e+01  2.200000e+02
     vertex -5.000000e+00  7.675000e+01  2.200000e+02
     vertex -5.000000e+00  7.825000e+01  2.200000e+02
   endloop
 endfacet
 facet normal  0.000000e+00 -0.000000e+00 -1.000000e+00
   outer loop
     vertex  5.000000e+00  7.825000e+01  2.200000e+02
     vertex  5.000000e+00  7.675000e+01  2.200000e+02
     vertex -5.000000e+00  7.675000e+01  2.200000e+02
   endloop
 endfacet
 facet normal  0.000000e+00  0.000000e+00  1.000000e+00
   outer loop
     vertex  5.000000e+00  7.825000e+01  2.300000e+02
     vertex -5.000000e+00  7.825000e+01  2.300000e+02
     vertex -5.000000e+00  7.675000e+01  2.300000e+02
   endloop
 endfacet
 facet normal  0.000000e+00  0.000000e+00  1.000000e+00
   outer loop
     vertex  5.000000e+00  7.825000e+01  2.300000e+02
     vertex -5.000000e+00  7.675000e+01  2.300000e+02
     vertex  5.000000e+00  7.675000e+01  2.300000e+02
   endloop
 endfacet
 facet normal -1.000000e+00  0.000000e+00  0.000000e+00
   outer loop
     vertex -5.000000e+00 -7.825000e+01  2.300000e+02
     vertex -5.000000e+00 -7.675000e+01  2.200000e+02
     vertex -5.000000e+00 -7.825000e+01  2.200000e+02
   endloop
 endfacet
 facet normal -1.000000e+00  0.000000e+00  0.000000e+00
   outer loop
     vertex -5.000000e+00 -7.825000e+01  2.300000e+02
     vertex -5.000000e+00 -7.675000e+01  2.300000e+02
     vertex -5.000000e+00 -7.675000e+01  2.200000e+02
   endloop
 endfacet
 facet normal  1.000000e+00  0.000000e+00  0.000000e+00
   outer loop
     vertex  5.000000e+00 -7.825000e+01  2.300000e+02
     vertex  5.000000e+00 -7.825000e+01  2.200000e+02
     vertex  5.000000e+00 -7.675000e+01  2.200000e+02
   endloop
 endfacet
 facet normal  1.000000e+00 -0.000000e+00  0.000000e+00
   outer loop
     vertex  5.000000e+00 -7.825000e+01  2.300000e+02
     vertex  5.000000e+00 -7.675000e+01  2.200000e+02
     vertex  5.000000e+00 -7.675000e+01  2.300000e+02
   endloop
 endfacet
 facet normal  0.000000e+00 -1.000000e+00 -0.000000e+00
   outer loop
     vertex  5.000000e+00 -7.825000e+01  2.300000e+02
     vertex -5.000000e+00 -7.825000e+01  2.200000e+02
     vertex  5.000000e+00 -7.825000e+01  2.200000e+02
   endloop
 endfacet
 facet normal -0.000000e+00 -1.000000e+00  0.000000e+00
   outer loop
     vertex  5.000000e+00 -7.825000e+01  2.300000e+02
     vertex -5.000000e+00 -7.825000e+01  2.300000e+02
     vertex -5.000000e+00 -7.825000e+01  2.200000e+02
   endloop
 endfacet
 facet normal  0.000000e+00  1.000000e+00  0.000000e+00
   outer loop
     vertex  5.000000e+00 -7.675000e+01  2.300000e+02
     vertex  5.000000e+00 -7.675000e+01  2.200000e+02
     vertex -5.000000e+00 -7.675000e+01  2.200000e+02
   endloop
 endfacet
 facet normal  0.000000e+00  1.000000e+00  0.000000e+00
   outer loop
     vertex  5.000000e+00 -7.675000e+01  2.300000e+02
     vertex -5.000000e+00 -7.675000e+01  2.200000e+02
     vertex -5.000000e+00 -7.675000e+01  2.300000e+02
   endloop
 endfacet
 facet normal -0.000000e+00  0.000000e+00 -1.000000e+00
   outer loop
     vertex  5.000000e+00 -7.675000e+01  2.200000e+02
     vertex -5.000000e+00 -7.825000e+01  2.200000e+02
     vertex -5.000000e+00 -7.675000e+01  2.200000e+02
   endloop
 endfacet
 facet normal  0.000000e+00 -0.000000e+00 -1.000000e+00
   outer loop
     vertex  5.000000e+00 -7.675000e+01  2.200000e+02
     vertex  5.000000e+00 -7.825000e+01  2.200000e+02
     vertex -5.000000e+00 -7.825000e+01  2.200000e+02
   endloop
 endfacet
 facet normal  0.000000e+00  0.000000e+00  1.000000e+00
   outer loop
     vertex  5.000000e+00 -7.675000e+01  2.300000e+02
     vertex -5.000000e+00 -7.675000e+01  2.300000e+02
     vertex -5.000000e+00 -7.825000e+01  2.300000e+02
   endloop
 endfacet
 facet normal  0.000000e+00  0.000000e+00  1.000000e+00
   outer loop
     vertex  5.000000e+00 -7.675000e+01  2.300000e+02
     vertex -5.000000e+00 -7.825000e+01  2.300000e+02
     vertex  5.000000e+00 -7.825000e+01  2.300000e+02
   endloop
 endfacet
endsolid
