solid 
 facet normal  0.000000e+00 -1.000000e+00  0.000000e+00
   outer loop
     vertex  1.195000e+02 -9.450000e+01  2.400000e+02
     vertex -1.195000e+02 -9.450000e+01  2.450000e+02
     vertex -1.195000e+02 -9.450000e+01  2.400000e+02
   endloop
 endfacet
 facet normal  0.000000e+00 -1.000000e+00  0.000000e+00
   outer loop
     vertex  1.195000e+02 -9.450000e+01  2.400000e+02
     vertex  1.195000e+02 -9.450000e+01  2.450000e+02
     vertex -1.195000e+02 -9.450000e+01  2.450000e+02
   endloop
 endfacet
 facet normal -1.000000e+00 -1.503794e-16  0.000000e+00
   outer loop
     vertex -1.195000e+02 -9.450000e+01  2.400000e+02
     vertex -1.195000e+02  9.450000e+01  2.450000e+02
     vertex -1.195000e+02  9.450000e+01  2.400000e+02
   endloop
 endfacet
 facet normal -1.000000e+00 -1.503794e-16  0.000000e+00
   outer loop
     vertex -1.195000e+02 -9.450000e+01  2.400000e+02
     vertex -1.195000e+02 -9.450000e+01  2.450000e+02
     vertex -1.195000e+02  9.450000e+01  2.450000e+02
   endloop
 endfacet
 facet normal  1.000000e+00  1.503794e-16  0.000000e+00
   outer loop
     vertex  1.195000e+02  9.450000e+01  2.400000e+02
     vertex  1.195000e+02 -9.450000e+01  2.450000e+02
     vertex  1.195000e+02 -9.450000e+01  2.400000e+02
   endloop
 endfacet
 facet normal  1.000000e+00  1.503794e-16 -0.000000e+00
   outer loop
     vertex  1.195000e+02  9.450000e+01  2.400000e+02
     vertex  1.195000e+02  9.450000e+01  2.450000e+02
     vertex  1.195000e+02 -9.450000e+01  2.450000e+02
   endloop
 endfacet
 facet normal -0.000000e+00  0.000000e+00 -1.000000e+00
   outer loop
     vertex  1.195000e+02  9.450000e+01  2.400000e+02
     vertex -1.195000e+02 -9.450000e+01  2.400000e+02
     vertex -1.195000e+02  9.450000e+01  2.400000e+02
   endloop
 endfacet
 facet normal  0.000000e+00 -0.000000e+00 -1.000000e+00
   outer loop
     vertex  1.195000e+02  9.450000e+01  2.400000e+02
     vertex  1.195000e+02 -9.450000e+01  2.400000e+02
     vertex -1.195000e+02 -9.450000e+01  2.400000e+02
   endloop
 endfacet
 facet normal  0.000000e+00  0.000000e+00  1.000000e+00
   outer loop
     vertex -1.700000e+01 -5.750000e+01  2.450000e+02
     vertex -1.195000e+02 -9.450000e+01  2.450000e+02
     vertex -1.700000e+01 -7.150000e+01  2.450000e+02
   endloop
 endfacet
 facet normal  0.000000e+00  0.000000e+00  1.000000e+00
   outer loop
     vertex -1.195000e+02  9.450000e+01  2.450000e+02
     vertex -1.700000e+01 -5.750000e+01  2.450000e+02
     vertex  1.700000e+01 -5.750000e+01  2.450000e+02
   endloop
 endfacet
 facet normal  0.000000e+00  0.000000e+00  1.000000e+00
   outer loop
     vertex -1.195000e+02  9.450000e+01  2.450000e+02
     vertex -1.195000e+02 -9.450000e+01  2.450000e+02
     vertex -1.700000e+01 -5.750000e+01  2.450000e+02
   endloop
 endfacet
 facet normal  0.000000e+00  0.000000e+00  1.000000e+00
   outer loop
     vertex  1.195000e+02 -9.450000e+01  2.450000e+02
     vertex  1.700000e+01 -7.150000e+01  2.450000e+02
     vertex -1.700000e+01 -7.150000e+01  2.450000e+02
   endloop
 endfacet
 facet normal  0.000000e+00  0.000000e+00  1.000000e+00
   outer loop
     vertex  1.195000e+02 -9.450000e+01  2.450000e+02
     vertex  1.700000e+01 -5.750000e+01  2.450000e+02
     vertex  1.700000e+01 -7.150000e+01  2.450000e+02
   endloop
 endfacet
 facet normal  0.000000e+00  0.000000e+00  1.000000e+00
   outer loop
     vertex  1.195000e+02 -9.450000e+01  2.450000e+02
     vertex -1.700000e+01 -7.150000e+01  2.450000e+02
     vertex -1.195000e+02 -9.450000e+01  2.450000e+02
   endloop
 endfacet
 facet normal  0.000000e+00  0.000000e+00  1.000000e+00
   outer loop
     vertex  1.195000e+02  9.450000e+01  2.450000e+02
     vertex -1.195000e+02  9.450000e+01  2.450000e+02
     vertex  1.700000e+01 -5.750000e+01  2.450000e+02
   endloop
 endfacet
 facet normal  0.000000e+00  0.000000e+00  1.000000e+00
   outer loop
     vertex  1.195000e+02  9.450000e+01  2.450000e+02
     vertex  1.700000e+01 -5.750000e+01  2.450000e+02
     vertex  1.195000e+02 -9.450000e+01  2.450000e+02
   endloop
 endfacet
 facet normal  0.000000e+00  1.000000e+00  0.000000e+00
   outer loop
     vertex -1.195000e+02  9.450000e+01  2.400000e+02
     vertex  1.195000e+02  9.450000e+01  2.450000e+02
     vertex  1.195000e+02  9.450000e+01  2.400000e+02
   endloop
 endfacet
 facet normal  0.000000e+00  1.000000e+00  0.000000e+00
   outer loop
     vertex -1.195000e+02  9.450000e+01  2.400000e+02
     vertex -1.195000e+02  9.450000e+01  2.450000e+02
     vertex  1.195000e+02  9.450000e+01  2.450000e+02
   endloop
 endfacet
 facet normal  0.000000e+00 -1.000000e+00  0.000000e+00
   outer loop
     vertex  1.700000e+01 -7.150000e+01  2.450000e+02
     vertex -1.700000e+01 -7.150000e+01  2.550000e+02
     vertex -1.700000e+01 -7.150000e+01  2.450000e+02
   endloop
 endfacet
 facet normal  0.000000e+00 -1.000000e+00  0.000000e+00
   outer loop
     vertex  1.700000e+01 -7.150000e+01  2.450000e+02
     vertex  1.700000e+01 -7.150000e+01  2.550000e+02
     vertex -1.700000e+01 -7.150000e+01  2.550000e+02
   endloop
 endfacet
 facet normal  1.000000e+00  0.000000e+00  0.000000e+00
   outer loop
     vertex  1.700000e+01 -5.750000e+01  2.450000e+02
     vertex  1.700000e+01 -7.150000e+01  2.550000e+02
     vertex  1.700000e+01 -7.150000e+01  2.450000e+02
   endloop
 endfacet
 facet normal  1.000000e+00  0.000000e+00 -0.000000e+00
   outer loop
     vertex  1.700000e+01 -5.750000e+01  2.450000e+02
     vertex  1.700000e+01 -5.750000e+01  2.550000e+02
     vertex  1.700000e+01 -7.150000e+01  2.550000e+02
   endloop
 endfacet
 facet normal  0.000000e+00  1.000000e+00  0.000000e+00
   outer loop
     vertex -1.700000e+01 -5.750000e+01  2.450000e+02
     vertex  1.700000e+01 -5.750000e+01  2.550000e+02
     vertex  1.700000e+01 -5.750000e+01  2.450000e+02
   endloop
 endfacet
 facet normal  0.000000e+00  1.000000e+00  0.000000e+00
   outer loop
     vertex -1.700000e+01 -5.750000e+01  2.450000e+02
     vertex -1.700000e+01 -5.750000e+01  2.550000e+02
     vertex  1.700000e+01 -5.750000e+01  2.550000e+02
   endloop
 endfacet
 facet normal -1.000000e+00  0.000000e+00  0.000000e+00
   outer loop
     vertex -1.700000e+01 -7.150000e+01  2.450000e+02
     vertex -1.700000e+01 -5.750000e+01  2.550000e+02
     vertex -1.700000e+01 -5.750000e+01  2.450000e+02
   endloop
 endfacet
 facet normal -1.000000e+00  0.000000e+00  0.000000e+00
   outer loop
     vertex -1.700000e+01 -7.150000e+01  2.450000e+02
     vertex -1.700000e+01 -7.150000e+01  2.550000e+02
     vertex -1.700000e+01 -5.750000e+01  2.550000e+02
   endloop
 endfacet
 facet normal  0.000000e+00  0.000000e+00  1.000000e+00
   outer loop
     vertex  1.700000e+01 -7.150000e+01  2.550000e+02
     vertex -1.700000e+01 -5.750000e+01  2.550000e+02
     vertex -1.700000e+01 -7.150000e+01  2.550000e+02
   endloop
 endfacet
 facet normal  0.000000e+00  0.000000e+00  1.000000e+00
   outer loop
     vertex  1.700000e+01 -5.750000e+01  2.550000e+02
     vertex -1.700000e+01 -5.750000e+01  2.550000e+02
     vertex  1.700000e+01 -7.150000e+01  2.550000e+02
   endloop
 endfacet
endsolid
